<mxfile host="app.diagrams.net" modified="2023-01-16T14:30:09.981Z" agent="5.0 (Windows NT 10.0; Win64; x64) AppleWebKit/537.36 (KHTML, like Gecko) Chrome/107.0.0.0 Safari/537.36" version="20.8.5" etag="_yHOIGwDDUs081XqW572" type="github">
  <diagram id="7DUBhApYlif77eazZMa8" name="第 1 页">
    <mxGraphModel dx="1434" dy="802" grid="1" gridSize="10" guides="1" tooltips="1" connect="1" arrows="1" fold="1" page="1" pageScale="1" pageWidth="827" pageHeight="1169" math="0" shadow="0">
      <root>
        <mxCell id="0" />
        <mxCell id="1" parent="0" />
        <mxCell id="wvxYDHuse1cbzY-exI0--1" value="top" style="rounded=0;whiteSpace=wrap;html=1;dashed=1;fillColor=#f5f5f5;fontColor=#333333;strokeColor=#666666;" vertex="1" parent="1">
          <mxGeometry x="120" y="80" width="600" height="120" as="geometry" />
        </mxCell>
        <mxCell id="wvxYDHuse1cbzY-exI0--2" value="banner" style="rounded=0;whiteSpace=wrap;html=1;dashed=1;fillColor=#f5f5f5;fontColor=#333333;strokeColor=#666666;" vertex="1" parent="1">
          <mxGeometry x="120" y="210" width="600" height="40" as="geometry" />
        </mxCell>
        <mxCell id="wvxYDHuse1cbzY-exI0--3" value="left" style="rounded=0;whiteSpace=wrap;html=1;dashed=1;fillColor=#f5f5f5;fontColor=#333333;strokeColor=#666666;" vertex="1" parent="1">
          <mxGeometry x="120" y="260" width="140" height="200" as="geometry" />
        </mxCell>
        <mxCell id="wvxYDHuse1cbzY-exI0--4" value="footer" style="rounded=0;whiteSpace=wrap;html=1;dashed=1;fillColor=#f5f5f5;fontColor=#333333;strokeColor=#666666;" vertex="1" parent="1">
          <mxGeometry x="120" y="470" width="600" height="160" as="geometry" />
        </mxCell>
        <mxCell id="wvxYDHuse1cbzY-exI0--5" value="right" style="rounded=0;whiteSpace=wrap;html=1;dashed=1;fillColor=#f5f5f5;fontColor=#333333;strokeColor=#666666;" vertex="1" parent="1">
          <mxGeometry x="274" y="260" width="446" height="200" as="geometry" />
        </mxCell>
      </root>
    </mxGraphModel>
  </diagram>
</mxfile>
